<svg xmlns="http://www.w3.org/2000/svg" viewBox="0 0 400 400"><rect width="400" height="400" fill="#FFFEF9"/><circle cx="200" cy="200" r="172" fill="#FBF1E0" stroke="#141414" stroke-width="8"/><path d="M268,282 C322,268 334,214 302,188" fill="none" stroke="#141414" stroke-width="26" stroke-linecap="round"/><path d="M268,282 C322,268 334,214 302,188" fill="none" stroke="#F5A24B" stroke-width="17" stroke-linecap="round"/><ellipse cx="200" cy="250" rx="84" ry="80" fill="#F5A24B" stroke="#141414" stroke-width="7"/><ellipse cx="200" cy="272" rx="44" ry="40" fill="#FFF6E8"/><g stroke="#E0892F" stroke-width="10" stroke-linecap="round"><line x1="132" y1="218" x2="150" y2="212"/><line x1="128" y1="244" x2="147" y2="240"/><line x1="132" y1="270" x2="150" y2="266"/></g><ellipse cx="166" cy="324" rx="23" ry="12" fill="#F5A24B" stroke="#141414" stroke-width="6"/><ellipse cx="234" cy="324" rx="23" ry="12" fill="#F5A24B" stroke="#141414" stroke-width="6"/><line x1="180" y1="262" x2="180" y2="296" stroke="#141414" stroke-width="26" stroke-linecap="round"/><line x1="180" y1="262" x2="180" y2="296" stroke="#F5A24B" stroke-width="17" stroke-linecap="round"/><line x1="220" y1="262" x2="220" y2="296" stroke="#141414" stroke-width="26" stroke-linecap="round"/><line x1="220" y1="262" x2="220" y2="296" stroke="#F5A24B" stroke-width="17" stroke-linecap="round"/><polygon points="160,100 146,52 200,86" fill="#F5A24B" stroke="#141414" stroke-width="7" stroke-linejoin="round"/><polygon points="200,86 254,52 240,100" fill="#F5A24B" stroke="#141414" stroke-width="7" stroke-linejoin="round"/><polygon points="164,90 156,62 188,82" fill="#F9B8C4"/><polygon points="212,82 244,62 236,90" fill="#F9B8C4"/><circle cx="200" cy="138" r="57" fill="#F5A24B" stroke="#141414" stroke-width="7"/><g stroke="#E0892F" stroke-width="9" stroke-linecap="round"><line x1="186" y1="90" x2="186" y2="103"/><line x1="200" y1="86" x2="200" y2="101"/><line x1="214" y1="90" x2="214" y2="103"/></g><circle cx="180" cy="132" r="7" fill="#141414"/><circle cx="220" cy="132" r="7" fill="#141414"/><polygon points="194,148 206,148 200,156" fill="#141414"/><path d="M188,158 q6,7 12,0 q6,7 12,0" fill="none" stroke="#141414" stroke-width="4.5" stroke-linecap="round"/><g stroke="#141414" stroke-width="4" stroke-linecap="round"><line x1="158" y1="142" x2="130" y2="137"/><line x1="158" y1="152" x2="131" y2="155"/><line x1="242" y1="142" x2="270" y2="137"/><line x1="242" y1="152" x2="269" y2="155"/></g></svg>