<svg xmlns="http://www.w3.org/2000/svg" viewBox="0 0 400 400"><rect width="400" height="400" fill="#FFFEF9"/><circle cx="200" cy="200" r="172" fill="#FBF1E0" stroke="#141414" stroke-width="8"/><g stroke="#141414" stroke-width="6" stroke-linecap="round"><line x1="48" y1="148" x2="78" y2="148"/><line x1="40" y1="184" x2="76" y2="184"/><line x1="48" y1="220" x2="78" y2="220"/></g><line x1="160" y1="262" x2="112" y2="306" stroke="#141414" stroke-width="28" stroke-linecap="round"/><line x1="160" y1="262" x2="112" y2="306" stroke="#E0892F" stroke-width="19" stroke-linecap="round"/><line x1="238" y1="262" x2="284" y2="306" stroke="#141414" stroke-width="28" stroke-linecap="round"/><line x1="238" y1="262" x2="284" y2="306" stroke="#E0892F" stroke-width="19" stroke-linecap="round"/><path d="M122,206 C74,184 66,124 112,102" fill="none" stroke="#141414" stroke-width="26" stroke-linecap="round"/><path d="M122,206 C74,184 66,124 112,102" fill="none" stroke="#F5A24B" stroke-width="17" stroke-linecap="round"/><g transform="rotate(-10 195 230)"><ellipse cx="195" cy="230" rx="88" ry="60" fill="#F5A24B" stroke="#141414" stroke-width="7"/><ellipse cx="222" cy="248" rx="40" ry="26" fill="#FFF6E8"/></g><g stroke="#E0892F" stroke-width="10" stroke-linecap="round"><line x1="136" y1="192" x2="160" y2="184"/><line x1="150" y1="216" x2="174" y2="208"/><line x1="140" y1="240" x2="162" y2="233"/></g><line x1="152" y1="250" x2="76" y2="276" stroke="#141414" stroke-width="30" stroke-linecap="round"/><line x1="152" y1="250" x2="76" y2="276" stroke="#F5A24B" stroke-width="21" stroke-linecap="round"/><line x1="242" y1="248" x2="324" y2="282" stroke="#141414" stroke-width="30" stroke-linecap="round"/><line x1="242" y1="248" x2="324" y2="282" stroke="#F5A24B" stroke-width="21" stroke-linecap="round"/><polygon points="234,120 194,76 262,104" fill="#F5A24B" stroke="#141414" stroke-width="7" stroke-linejoin="round"/><polygon points="286,102 350,70 322,122" fill="#F5A24B" stroke="#141414" stroke-width="7" stroke-linejoin="round"/><polygon points="234,112 210,86 254,104" fill="#F9B8C4"/><polygon points="292,102 334,80 318,114" fill="#F9B8C4"/><circle cx="272" cy="148" r="54" fill="#F5A24B" stroke="#141414" stroke-width="7"/><circle cx="252" cy="144" r="7" fill="#141414"/><circle cx="292" cy="144" r="7" fill="#141414"/><polygon points="266,160 278,160 272,168" fill="#141414"/><path d="M260,170 q6,7 12,0 q6,7 12,0" fill="none" stroke="#141414" stroke-width="4.5" stroke-linecap="round"/><g stroke="#141414" stroke-width="4" stroke-linecap="round"><line x1="230" y1="154" x2="202" y2="149"/><line x1="230" y1="164" x2="203" y2="167"/><line x1="314" y1="154" x2="342" y2="149"/><line x1="314" y1="164" x2="341" y2="167"/></g><g transform="rotate(-6 272 106)"><ellipse cx="272" cy="110" rx="76" ry="17" fill="#D8C089" stroke="#141414" stroke-width="7"/><path d="M216,110 A56,50 0 0 1 328,110 Z" fill="#D8C089" stroke="#141414" stroke-width="7" stroke-linejoin="round"/><path d="M220,102 Q272,84 324,102" fill="none" stroke="#8B6F47" stroke-width="13"/></g></svg>